<svg width="32" height="32" viewBox="0 0 32 32" fill="none" xmlns="http://www.w3.org/2000/svg">
<rect width="32" height="32" rx="16" fill="#FFBB3F"/>
<path fill-rule="evenodd" clip-rule="evenodd" d="M16.8847 13.2337C17.0247 13.095 17.2136 13.0169 17.4106 13.0164C17.6077 13.0158 17.797 13.0929 17.9378 13.2308C18.0785 13.3688 18.1592 13.5566 18.1626 13.7536C18.166 13.9506 18.0916 14.141 17.9557 14.2837L13.9637 19.2737C13.8951 19.3476 13.8123 19.4069 13.7202 19.4481C13.6282 19.4892 13.5288 19.5114 13.428 19.5133C13.3271 19.5152 13.227 19.4967 13.1335 19.4589C13.04 19.4212 12.955 19.365 12.8837 19.2937L10.2387 16.6477C10.165 16.5791 10.1059 16.4963 10.0649 16.4043C10.0239 16.3123 10.0019 16.2129 10.0001 16.1122C9.99834 16.0115 10.0169 15.9115 10.0546 15.8181C10.0923 15.7247 10.1485 15.6399 10.2197 15.5687C10.2909 15.4975 10.3757 15.4413 10.4691 15.4036C10.5625 15.3659 10.6625 15.3473 10.7632 15.3491C10.8639 15.3509 10.9632 15.3729 11.0552 15.4139C11.1472 15.4549 11.23 15.514 11.2987 15.5877L13.3927 17.6807L16.8647 13.2557C16.8709 13.248 16.8776 13.2406 16.8847 13.2337V13.2337ZM15.9647 18.3737L16.8847 19.2937C16.956 19.3649 17.0409 19.4209 17.1343 19.4586C17.2277 19.4962 17.3278 19.5146 17.4285 19.5128C17.5291 19.5109 17.6284 19.4888 17.7204 19.4477C17.8124 19.4066 17.8951 19.3475 17.9637 19.2737L21.9557 14.2837C22.0274 14.2129 22.0841 14.1284 22.1224 14.0352C22.1608 13.942 22.1799 13.842 22.1787 13.7413C22.1776 13.6405 22.1561 13.541 22.1156 13.4487C22.0751 13.3564 22.0165 13.2733 21.9431 13.2041C21.8698 13.135 21.7833 13.0814 21.6887 13.0465C21.5942 13.0116 21.4936 12.996 21.393 13.0009C21.2923 13.0057 21.1936 13.0307 21.1029 13.0745C21.0121 13.1183 20.9311 13.1799 20.8647 13.2557L17.3917 17.6807L16.9067 17.1947L15.9637 18.3737H15.9647Z" fill="white"/>
</svg>
