<svg width="80" height="80" viewBox="0 0 80 80" fill="none" xmlns="http://www.w3.org/2000/svg">
<g filter="url(#filter0_d_993_864)">
<rect x="15" y="11" width="50" height="50" rx="25" fill="#E3E4FF"/>
<g clip-path="url(#clip0_993_864)">
<path fill-rule="evenodd" clip-rule="evenodd" d="M44.8768 24.1019C45.0236 24.187 45.1372 24.3194 45.1991 24.4774C45.2609 24.6355 45.2673 24.8098 45.2173 24.9719L42.5158 33.7499H47.5003C47.6468 33.7499 47.7901 33.7927 47.9125 33.8732C48.0349 33.9536 48.1311 34.0681 48.1892 34.2026C48.2472 34.3371 48.2646 34.4856 48.2393 34.6299C48.2139 34.7742 48.1468 34.9078 48.0463 35.0144L36.0463 47.7644C35.9302 47.8879 35.7757 47.9684 35.608 47.9928C35.4402 48.0172 35.2692 47.9841 35.1227 47.8989C34.9762 47.8136 34.8629 47.6813 34.8013 47.5234C34.7397 47.3655 34.7333 47.1914 34.7833 47.0294L37.4848 38.2499H32.5003C32.3538 38.25 32.2105 38.2071 32.0881 38.1267C31.9657 38.0463 31.8695 37.9317 31.8114 37.7972C31.7534 37.6628 31.736 37.5142 31.7613 37.37C31.7867 37.2257 31.8538 37.092 31.9543 36.9854L43.9543 24.2354C44.0703 24.1121 44.2245 24.0317 44.392 24.0072C44.5595 23.9827 44.7304 24.0155 44.8768 24.1004V24.1019ZM34.2358 36.7499H38.5003C38.6177 36.7499 38.7334 36.7774 38.8382 36.8303C38.943 36.8831 39.0339 36.9599 39.1037 37.0543C39.1734 37.1487 39.22 37.2581 39.2398 37.3738C39.2595 37.4895 39.2518 37.6082 39.2173 37.7204L37.1653 44.3849L45.7633 35.2499H41.5003C41.3829 35.25 41.2672 35.2224 41.1624 35.1696C41.0576 35.1167 40.9667 35.04 40.8969 34.9456C40.8272 34.8512 40.7806 34.7417 40.7608 34.626C40.7411 34.5103 40.7488 34.3916 40.7833 34.2794L42.8353 27.6149L34.2358 36.7499Z" fill="black"/>
</g>
</g>
<defs>
<filter id="filter0_d_993_864" x="0" y="0" width="80" height="80" filterUnits="userSpaceOnUse" color-interpolation-filters="sRGB">
<feFlood flood-opacity="0" result="BackgroundImageFix"/>
<feColorMatrix in="SourceAlpha" type="matrix" values="0 0 0 0 0 0 0 0 0 0 0 0 0 0 0 0 0 0 127 0" result="hardAlpha"/>
<feOffset dy="4"/>
<feGaussianBlur stdDeviation="7.5"/>
<feComposite in2="hardAlpha" operator="out"/>
<feColorMatrix type="matrix" values="0 0 0 0 0 0 0 0 0 0 0 0 0 0 0 0 0 0 0.1 0"/>
<feBlend mode="normal" in2="BackgroundImageFix" result="effect1_dropShadow_993_864"/>
<feBlend mode="normal" in="SourceGraphic" in2="effect1_dropShadow_993_864" result="shape"/>
</filter>
<clipPath id="clip0_993_864">
<rect width="24" height="24" fill="white" transform="translate(28 24)"/>
</clipPath>
</defs>
</svg>
