<svg width="1760" height="122" viewBox="0 0 1760 122" fill="none" xmlns="http://www.w3.org/2000/svg">
<path fill-rule="evenodd" clip-rule="evenodd" d="M0 0L36.6667 20.3333C73.3333 40.6667 146.667 81.3333 220 86.4167C293.333 91.5 366.667 61 440 43.2083C513.333 25.4167 586.667 20.3333 660 30.5C733.333 40.6667 806.667 66.0833 880 66.0833C953.333 66.0833 1026.67 40.6667 1100 22.875C1173.33 5.08333 1246.67 -5.08333 1320 10.1667C1393.33 25.4167 1466.67 66.0833 1540 76.25C1613.33 86.4167 1686.67 66.0833 1723.33 55.9167L1760 45.75V122H1723.33C1686.67 122 1613.33 122 1540 122C1466.67 122 1393.33 122 1320 122C1246.67 122 1173.33 122 1100 122C1026.67 122 953.333 122 880 122C806.667 122 733.333 122 660 122C586.667 122 513.333 122 440 122C366.667 122 293.333 122 220 122C146.667 122 73.3333 122 36.6667 122H0V0Z" fill="#FFBB3F"/>
</svg>
