<svg width="80" height="80" viewBox="0 0 80 80" fill="none" xmlns="http://www.w3.org/2000/svg">
<g filter="url(#filter0_d_430_1005)">
<rect x="15" y="11" width="50" height="50" rx="25" fill="#E3E4FF"/>
<path d="M46 43.5C46 45.1575 44.32 46.5 42.25 46.5C40.18 46.5 38.5 45.1575 38.5 43.5C38.5 41.8425 40.18 40.5 42.25 40.5C44.32 40.5 46 41.8425 46 43.5Z" fill="black"/>
<path fill-rule="evenodd" clip-rule="evenodd" d="M46 28.5V43.5H44.5V28.5H46Z" fill="black"/>
<path d="M44.5 28.2301C44.5002 27.8835 44.6205 27.5476 44.8403 27.2797C45.0602 27.0117 45.3661 26.8281 45.706 26.7601L50.206 25.8601C50.4235 25.8167 50.648 25.822 50.8632 25.8757C51.0785 25.9294 51.2791 26.0302 51.4507 26.1708C51.6223 26.3114 51.7606 26.4883 51.8555 26.6888C51.9505 26.8893 51.9999 27.1083 52 27.3301V30.0001L44.5 31.5001V28.2301Z" fill="black"/>
<path fill-rule="evenodd" clip-rule="evenodd" d="M28 41.25C28 41.0511 28.079 40.8603 28.2197 40.7197C28.3603 40.579 28.5511 40.5 28.75 40.5H34C34.1989 40.5 34.3897 40.579 34.5303 40.7197C34.671 40.8603 34.75 41.0511 34.75 41.25C34.75 41.4489 34.671 41.6397 34.5303 41.7803C34.3897 41.921 34.1989 42 34 42H28.75C28.5511 42 28.3603 41.921 28.2197 41.7803C28.079 41.6397 28 41.4489 28 41.25ZM28 35.25C28 35.0511 28.079 34.8603 28.2197 34.7197C28.3603 34.579 28.5511 34.5 28.75 34.5H40C40.1989 34.5 40.3897 34.579 40.5303 34.7197C40.671 34.8603 40.75 35.0511 40.75 35.25C40.75 35.4489 40.671 35.6397 40.5303 35.7803C40.3897 35.921 40.1989 36 40 36H28.75C28.5511 36 28.3603 35.921 28.2197 35.7803C28.079 35.6397 28 35.4489 28 35.25ZM28 29.25C28 29.0511 28.079 28.8603 28.2197 28.7197C28.3603 28.579 28.5511 28.5 28.75 28.5H40C40.1989 28.5 40.3897 28.579 40.5303 28.7197C40.671 28.8603 40.75 29.0511 40.75 29.25C40.75 29.4489 40.671 29.6397 40.5303 29.7803C40.3897 29.921 40.1989 30 40 30H28.75C28.5511 30 28.3603 29.921 28.2197 29.7803C28.079 29.6397 28 29.4489 28 29.25Z" fill="black"/>
</g>
<defs>
<filter id="filter0_d_430_1005" x="0" y="0" width="80" height="80" filterUnits="userSpaceOnUse" color-interpolation-filters="sRGB">
<feFlood flood-opacity="0" result="BackgroundImageFix"/>
<feColorMatrix in="SourceAlpha" type="matrix" values="0 0 0 0 0 0 0 0 0 0 0 0 0 0 0 0 0 0 127 0" result="hardAlpha"/>
<feOffset dy="4"/>
<feGaussianBlur stdDeviation="7.5"/>
<feComposite in2="hardAlpha" operator="out"/>
<feColorMatrix type="matrix" values="0 0 0 0 0 0 0 0 0 0 0 0 0 0 0 0 0 0 0.1 0"/>
<feBlend mode="normal" in2="BackgroundImageFix" result="effect1_dropShadow_430_1005"/>
<feBlend mode="normal" in="SourceGraphic" in2="effect1_dropShadow_430_1005" result="shape"/>
</filter>
</defs>
</svg>
