<svg width="80" height="80" viewBox="0 0 80 80" fill="none" xmlns="http://www.w3.org/2000/svg">
<g filter="url(#filter0_d_430_1005)">
<rect x="15" y="11" width="50" height="50" rx="25" fill="#E3E4FF"/>
<path d="M45.25 33.0405C45.25 33.2394 45.171 33.4302 45.0303 33.5708C44.8897 33.7115 44.6989 33.7905 44.5 33.7905C44.3011 33.7905 44.1103 33.7115 43.9697 33.5708C43.829 33.4302 43.75 33.2394 43.75 33.0405C43.75 32.8416 43.829 32.6508 43.9697 32.5102C44.1103 32.3695 44.3011 32.2905 44.5 32.2905C44.6989 32.2905 44.8897 32.3695 45.0303 32.5102C45.171 32.6508 45.25 32.8416 45.25 33.0405ZM43 35.2905C43.1989 35.2905 43.3897 35.2115 43.5303 35.0708C43.671 34.9302 43.75 34.7394 43.75 34.5405C43.75 34.3416 43.671 34.1508 43.5303 34.0102C43.3897 33.8695 43.1989 33.7905 43 33.7905C42.8011 33.7905 42.6103 33.8695 42.4697 34.0102C42.329 34.1508 42.25 34.3416 42.25 34.5405C42.25 34.7394 42.329 34.9302 42.4697 35.0708C42.6103 35.2115 42.8011 35.2905 43 35.2905ZM46.75 34.5405C46.75 34.7394 46.671 34.9302 46.5303 35.0708C46.3897 35.2115 46.1989 35.2905 46 35.2905C45.8011 35.2905 45.6103 35.2115 45.4697 35.0708C45.329 34.9302 45.25 34.7394 45.25 34.5405C45.25 34.3416 45.329 34.1508 45.4697 34.0102C45.6103 33.8695 45.8011 33.7905 46 33.7905C46.1989 33.7905 46.3897 33.8695 46.5303 34.0102C46.671 34.1508 46.75 34.3416 46.75 34.5405ZM44.5 36.7905C44.6989 36.7905 44.8897 36.7115 45.0303 36.5708C45.171 36.4302 45.25 36.2394 45.25 36.0405C45.25 35.8416 45.171 35.6508 45.0303 35.5102C44.8897 35.3695 44.6989 35.2905 44.5 35.2905C44.3011 35.2905 44.1103 35.3695 43.9697 35.5102C43.829 35.6508 43.75 35.8416 43.75 36.0405C43.75 36.2394 43.829 36.4302 43.9697 36.5708C44.1103 36.7115 44.3011 36.7905 44.5 36.7905ZM34.75 32.2905H36.25V33.7905H37.75V35.2905H36.25V36.7905H34.75V35.2905H33.25V33.7905H34.75V32.2905Z" fill="black"/>
<path d="M32.5765 28.89C32.5509 28.7948 32.5443 28.6954 32.5571 28.5976C32.57 28.4998 32.602 28.4055 32.6513 28.3201C32.7006 28.2347 32.7663 28.1599 32.8446 28.0999C32.9229 28.0399 33.0122 27.9959 33.1075 27.9705L36.0055 27.1935C36.1051 27.1669 36.2092 27.1612 36.3111 27.1767C36.4131 27.1921 36.5107 27.2285 36.598 27.2834C36.6853 27.3383 36.7603 27.4106 36.8184 27.4958C36.8764 27.5809 36.9163 27.6772 36.9355 27.7785C37.918 27.66 38.9605 27.603 40 27.603C41.08 27.603 42.1645 27.6645 43.18 27.792C43.1976 27.6892 43.2363 27.5911 43.2939 27.5041C43.3515 27.4171 43.4266 27.3431 43.5144 27.2868C43.6022 27.2305 43.7008 27.1931 43.8039 27.177C43.9069 27.1609 44.0122 27.1666 44.113 27.1935L47.011 27.9705C47.1216 28.0001 47.2239 28.0546 47.3102 28.1299C47.3964 28.2051 47.4643 28.2992 47.5086 28.4047C47.5529 28.5103 47.5725 28.6246 47.5658 28.7388C47.5591 28.8531 47.5263 28.9643 47.47 29.064C47.68 29.199 47.869 29.349 48.0295 29.5095C48.6415 30.1215 49.1995 31.0845 49.672 32.1675C50.152 33.267 50.5705 34.554 50.8795 35.8665C51.1885 37.179 51.3895 38.5365 51.4255 39.7755C51.4615 40.9995 51.337 42.1785 50.9335 43.0905C50.7495 43.4999 50.4408 43.8408 50.0516 44.0644C49.6623 44.288 49.2124 44.3828 48.766 44.3355C47.812 44.235 47.0935 43.7445 46.4965 43.176C46.129 42.828 45.7525 42.387 45.388 41.964C45.199 41.742 45.013 41.526 44.836 41.3295C43.744 40.1235 42.4405 39.039 40 39.039C37.5595 39.039 36.256 40.1235 35.164 41.3295C34.9855 41.526 34.801 41.742 34.612 41.964C34.2475 42.387 33.871 42.8265 33.5035 43.176C32.9065 43.746 32.188 44.235 31.234 44.3355C30.7876 44.3828 30.3377 44.288 29.9484 44.0644C29.5592 43.8408 29.2505 43.4999 29.0665 43.0905C28.6615 42.1785 28.5385 40.998 28.573 39.7755C28.609 38.5365 28.813 37.1805 29.1205 35.8665C29.4295 34.554 29.8495 33.267 30.328 32.1675C30.8005 31.0845 31.3585 30.1215 31.969 29.5095C32.1651 29.3172 32.3831 29.1485 32.6185 29.007C32.6013 28.9687 32.5872 28.9291 32.5765 28.8885V28.89ZM35.6305 29.508C34.315 29.7855 33.427 30.1725 33.031 30.57C32.617 30.984 32.1505 31.7445 31.7035 32.7675C31.2293 33.8799 30.8539 35.0318 30.5815 36.21C30.2938 37.3934 30.1235 38.6022 30.073 39.819C30.04 40.9515 30.166 41.871 30.4375 42.483C30.4931 42.6022 30.5846 42.701 30.6992 42.7656C30.8138 42.8301 30.9458 42.8572 31.0765 42.843C31.567 42.792 31.9915 42.5445 32.47 42.09C32.788 41.787 33.07 41.4555 33.3925 41.079C33.592 40.845 33.8065 40.5945 34.0525 40.323C35.2915 38.9535 36.967 37.5405 40 37.5405C43.033 37.5405 44.7085 38.9535 45.9475 40.323C46.1935 40.5945 46.408 40.845 46.6075 41.079C46.9285 41.4555 47.212 41.787 47.53 42.09C48.007 42.5445 48.4315 42.792 48.9235 42.8445C49.0545 42.8586 49.1865 42.8313 49.3011 42.7664C49.4157 42.7016 49.5072 42.6025 49.5625 42.483C49.8325 41.871 49.96 40.953 49.927 39.819C49.8765 38.6022 49.7062 37.3934 49.4185 36.21C49.1461 35.0318 48.7707 33.8799 48.2965 32.7675C47.8495 31.7445 47.3815 30.9825 46.969 30.57C46.573 30.1725 45.685 29.7855 44.3695 29.508C43.0945 29.2395 41.554 29.103 40 29.103C38.446 29.103 36.9055 29.2395 35.6305 29.508Z" fill="black"/>
</g>
<defs>
<filter id="filter0_d_430_1005" x="0" y="0" width="80" height="80" filterUnits="userSpaceOnUse" color-interpolation-filters="sRGB">
<feFlood flood-opacity="0" result="BackgroundImageFix"/>
<feColorMatrix in="SourceAlpha" type="matrix" values="0 0 0 0 0 0 0 0 0 0 0 0 0 0 0 0 0 0 127 0" result="hardAlpha"/>
<feOffset dy="4"/>
<feGaussianBlur stdDeviation="7.5"/>
<feComposite in2="hardAlpha" operator="out"/>
<feColorMatrix type="matrix" values="0 0 0 0 0 0 0 0 0 0 0 0 0 0 0 0 0 0 0.1 0"/>
<feBlend mode="normal" in2="BackgroundImageFix" result="effect1_dropShadow_430_1005"/>
<feBlend mode="normal" in="SourceGraphic" in2="effect1_dropShadow_430_1005" result="shape"/>
</filter>
</defs>
</svg>
