<svg width="48" height="48" viewBox="0 0 48 48" fill="none" xmlns="http://www.w3.org/2000/svg">
<path d="M24 10.5C16.5458 10.5 10.5 16.5446 10.5 24C10.5 29.9648 14.3677 35.025 19.7329 36.8104C20.4067 36.9353 20.625 36.5168 20.625 36.1613V33.648C16.8698 34.4648 16.0879 32.055 16.0879 32.055C15.4736 30.4946 14.5883 30.0795 14.5883 30.0795C13.3631 29.2414 14.6816 29.2594 14.6816 29.2594C16.0373 29.3539 16.7505 30.651 16.7505 30.651C17.9543 32.7143 19.9084 32.118 20.679 31.7726C20.7994 30.9008 21.1493 30.3045 21.5363 29.9681C18.5381 29.625 15.3859 28.4674 15.3859 23.2958C15.3859 21.8209 15.9135 20.6171 16.7764 19.6721C16.6369 19.3313 16.1745 17.9576 16.908 16.0991C16.908 16.0991 18.042 15.7369 20.6216 17.4829C21.6982 17.1836 22.8525 17.034 24 17.0284C25.1475 17.034 26.3029 17.1836 27.3818 17.4829C29.9591 15.7369 31.0909 16.0991 31.0909 16.0991C31.8255 17.9588 31.3631 19.3324 31.2236 19.6721C32.0899 20.6171 32.613 21.822 32.613 23.2958C32.613 28.4809 29.4551 29.6228 26.4491 29.9569C26.9329 30.3754 27.375 31.1966 27.375 32.4566V36.1613C27.375 36.5201 27.591 36.942 28.2761 36.8093C33.6367 35.0216 37.5 29.9625 37.5 24C37.5 16.5446 31.4554 10.5 24 10.5Z" fill="black"/>
</svg>
