<svg width="20" height="35" viewBox="0 0 20 35" fill="none" xmlns="http://www.w3.org/2000/svg">
<path d="M20 8.68173V13.3184C20 13.8706 19.5523 14.3184 19 14.3184H12.3735C11.3956 14.3184 10.999 13.0596 11.8002 12.499L18.4267 7.86239C19.0895 7.39863 20 7.8728 20 8.68173Z" fill="#05559F"/>
<path d="M0 9.22196V1C0 0.447715 0.447715 0 1 0H12.8128C13.7919 0 14.1876 1.26144 13.384 1.82076L1.57127 10.0427C0.908254 10.5042 0 10.0298 0 9.22196Z" fill="#05559F"/>
<path d="M0 25.778V34C0 34.5523 0.447715 35 1 35H12.8128C13.7919 35 14.1876 33.7386 13.384 33.1792L1.57127 24.9573C0.908254 24.4958 0 24.9702 0 25.778Z" fill="#05559F"/>
<path d="M20 26.3183V21.6816C20 21.1294 19.5523 20.6816 19 20.6816H12.3735C11.3956 20.6816 10.999 21.9404 11.8002 22.501L18.4267 27.1376C19.0895 27.6014 20 27.1272 20 26.3183Z" fill="#05559F"/>
<path d="M0 20.8822C0 21.2135 0.164031 21.5232 0.438023 21.7094L18.438 33.9388C19.102 34.3899 20 33.9143 20 33.1116V31.4083C20 31.0791 19.8379 30.7709 19.5666 30.5843L5.88504 21.1769C5.07586 20.6206 5.46962 19.3529 6.45163 19.3529H19C19.5523 19.3529 20 18.9052 20 18.3529V17.5H0V20.8822Z" fill="#CD0E07"/>
<path d="M0 14.1178C0 13.7865 0.164031 13.4768 0.438023 13.2906L18.438 1.06123C19.102 0.610142 20 1.08571 20 1.88838V3.59166C20 3.92093 19.8379 4.2291 19.5666 4.41566L5.88504 13.8231C5.07586 14.3794 5.46962 15.6471 6.45163 15.6471H19C19.5523 15.6471 20 16.0948 20 16.6471V17.5H0V14.1178Z" fill="#CD0E07"/>
</svg>
