<svg width="113" height="44" viewBox="0 0 113 44" fill="none" xmlns="http://www.w3.org/2000/svg">
<path d="M58.3397 14.2936L63.7158 13.9362C63.8385 14.8401 64.0633 15.5128 64.4313 15.9962C65.0241 16.7529 65.8418 17.1313 66.9251 17.1313C67.7223 17.1313 68.356 16.9421 68.7853 16.5427C69.1941 16.2275 69.4394 15.723 69.4394 15.1974C69.4394 14.693 69.2145 14.2095 68.8261 13.8943C68.4173 13.5159 67.4566 13.1376 65.944 12.8012C63.4705 12.2337 61.6921 11.477 60.6496 10.51C59.6071 9.60622 59.0143 8.28192 59.0551 6.87359C59.0551 5.90667 59.3413 4.93975 59.8728 4.141C60.4861 3.23715 61.3242 2.52247 62.3258 2.12309C63.4092 1.63964 64.9219 1.3874 66.8229 1.3874C69.1532 1.3874 70.9316 1.82881 72.1581 2.73267C73.3846 3.61551 74.1205 5.04486 74.3454 6.99971L69.0306 7.31501C68.8875 6.47421 68.6013 5.86463 68.1311 5.46526C67.661 5.06587 67.0478 4.8767 66.2506 4.8767C65.5964 4.8767 65.1058 5.02384 64.7788 5.29709C64.4721 5.54933 64.2677 5.92769 64.2882 6.34809C64.2882 6.66339 64.4517 6.95767 64.697 7.14685C64.9628 7.39908 65.5964 7.6303 66.598 7.84051C69.0715 8.38702 70.8294 8.93352 71.9128 9.50104C72.9962 10.0686 73.773 10.7622 74.2431 11.5821C74.7338 12.4228 74.979 13.3898 74.9586 14.3777C74.9586 15.5548 74.6315 16.7319 73.9774 17.7198C73.3028 18.7498 72.3625 19.5486 71.2587 20.032C70.0936 20.5576 68.6217 20.8308 66.8638 20.8308C63.7567 20.8308 61.6104 20.2212 60.4043 18.981C59.1983 17.7409 58.4829 16.1854 58.3397 14.2936ZM1.28781 20.5155V1.72372H10.7113C12.4488 1.72372 13.798 1.87086 14.7178 2.18615C15.6172 2.48043 16.4145 3.09001 16.9459 3.90978C17.5387 4.81364 17.8249 5.86463 17.8044 6.95767C17.8658 8.80745 16.9459 10.5731 15.3719 11.498C14.7587 11.8553 14.0842 12.1075 13.3891 12.2337C13.9002 12.3808 14.4112 12.6331 14.8609 12.9273C15.2084 13.2216 15.4946 13.5579 15.7603 13.9153C16.0669 14.2726 16.3327 14.672 16.5575 15.0923L19.2966 20.5365H12.8781L9.85276 14.7561C9.46438 14.0203 9.13726 13.5369 8.83066 13.3057C8.42185 13.0114 7.93126 12.8642 7.44067 12.8642H6.95007V20.4944H1.28781V20.5155ZM6.95007 9.33291H9.34175C9.85276 9.29085 10.3434 9.20683 10.8339 9.08067C11.2019 9.01763 11.5289 8.80745 11.7538 8.49209C12.3057 7.7354 12.2239 6.66339 11.5494 6.01177C11.1815 5.69648 10.466 5.52831 9.44396 5.52831H6.95007V9.33291ZM0 36.6167L5.37609 36.2594C5.49873 37.1632 5.72359 37.8359 6.09154 38.3193C6.6639 39.0761 7.50199 39.4754 8.58541 39.4754C9.3826 39.4754 10.0163 39.2862 10.4456 38.8869C10.8544 38.5506 11.0997 38.0671 11.0997 37.5416C11.0997 37.0372 10.8748 36.5537 10.4864 36.2384C10.0776 35.86 9.11684 35.4817 7.58376 35.1453C5.11035 34.5778 3.33194 33.8211 2.28944 32.8542C1.24693 31.9503 0.654124 30.626 0.695007 29.2178C0.695007 28.2508 0.981183 27.2839 1.51266 26.4851C2.12591 25.5813 2.964 24.8666 3.96563 24.4672C5.04902 23.9838 6.56168 23.7316 8.4627 23.7316C10.7931 23.7316 12.5715 24.1729 13.798 25.0768C15.0244 25.9806 15.7399 27.389 15.9647 29.3439L10.65 29.6591C10.5069 28.8184 10.2207 28.2088 9.75056 27.8094C9.30082 27.4101 8.66718 27.2209 7.86994 27.2418C7.21581 27.2418 6.72522 27.389 6.39815 27.6833C6.0711 27.9355 5.88712 28.3139 5.90757 28.7343C5.90757 29.0496 6.0711 29.3439 6.31639 29.5331C6.58213 29.7853 7.21581 30.0165 8.21744 30.2267C10.6909 30.7732 12.4488 31.3197 13.5322 31.8872C14.6156 32.4548 15.3924 33.1484 15.8625 33.9683C16.3531 34.809 16.5984 35.776 16.5984 36.7429C16.5984 37.92 16.2509 39.0761 15.6172 40.064C14.9426 41.094 14.0024 41.8927 12.8985 42.3762C11.7333 42.9017 10.2616 43.1749 8.50363 43.1749C5.39653 43.1749 3.25018 42.5653 2.04414 41.3252C0.8381 40.064 0.163531 38.5085 0 36.6167Z" fill="black"/>
<path d="M27.187 35.1452L32.1339 36.6796C31.8682 37.9618 31.3162 39.181 30.5599 40.253C29.8649 41.1989 28.9451 41.9346 27.9025 42.418C26.8396 42.9015 25.4905 43.1538 23.8551 43.1538C21.8723 43.1538 20.237 42.8595 18.9901 42.2709C17.7228 41.6824 16.6393 40.6314 15.7195 39.1389C14.7996 37.6465 14.3499 35.7337 14.3499 33.4005C14.3499 30.2895 15.1471 27.8933 16.762 26.2327C18.3768 24.5721 20.6459 23.7313 23.5894 23.7313C25.8993 23.7313 27.6981 24.2148 29.0268 25.1607C30.3351 26.1276 31.3162 27.599 31.9704 29.5749L26.9826 30.71C26.86 30.2685 26.676 29.8271 26.4308 29.4488C26.1241 29.0073 25.7357 28.671 25.2656 28.4188C24.7955 28.1665 24.2639 28.0614 23.7325 28.0614C22.4446 28.0614 21.4635 28.587 20.7889 29.659C20.2779 30.4367 20.0121 31.6769 20.0121 33.3584C20.0121 35.4395 20.3187 36.8688 20.932 37.6465C21.5453 38.4243 22.4038 38.8026 23.5281 38.8026C24.6115 38.8026 25.4291 38.4873 25.981 37.8777C26.533 37.2261 26.9418 36.3223 27.187 35.1452ZM38.7365 24.0467H44.3783V30.6259H50.5516V24.0467H56.2343V42.8384H50.5516V35.2293H44.3783V42.8384H38.7365V24.0467Z" fill="black"/>
<path d="M55.4575 33.4427C55.4575 30.3738 56.2956 27.9775 57.9513 26.2749C59.6071 24.5723 61.9374 23.7105 64.9014 23.7105C67.9472 23.7105 70.2775 24.5513 71.9332 26.2329C73.589 27.9144 74.4067 30.2687 74.4067 33.2956C74.4067 35.5027 74.0387 37.2893 73.3233 38.6977C72.6283 40.085 71.5448 41.22 70.2162 41.9768C68.8466 42.7545 67.15 43.1538 65.1263 43.1538C63.0617 43.1538 61.365 42.8176 60.0159 42.1449C58.6259 41.4302 57.4812 40.3162 56.7248 38.9499C55.8868 37.4785 55.4575 35.6498 55.4575 33.4427ZM61.0993 33.4637C61.0993 35.3555 61.4468 36.7218 62.1214 37.5626C62.7959 38.3824 63.7363 38.8027 64.9219 38.8027C66.1279 38.8027 67.0682 38.4034 67.7428 37.5836C68.4173 36.7639 68.7443 35.3135 68.7443 33.2115C68.7443 31.4458 68.3969 30.1425 67.7019 29.3438C67.0069 28.524 66.0666 28.1246 64.881 28.1246C63.8385 28.0827 62.8368 28.5451 62.1418 29.3648C61.4468 30.1846 61.0993 31.5509 61.0993 33.4637ZM80.1916 33.4427C80.1916 30.3738 81.0296 27.9775 82.6855 26.2749C84.3415 24.5723 86.6718 23.7105 89.6358 23.7105C92.6809 23.7105 95.0322 24.5513 96.6677 26.2329C98.3025 27.9144 99.1403 30.2687 99.1403 33.2956C99.1403 35.5027 98.7729 37.2893 98.0572 38.6977C97.3625 40.085 96.2793 41.22 94.9501 41.9768C93.5807 42.7545 91.8841 43.1538 89.8601 43.1538C87.796 43.1538 86.0993 42.8176 84.75 42.1449C83.36 41.4302 82.2153 40.3162 81.4589 38.9499C80.6208 37.4785 80.1916 35.6498 80.1916 33.4427ZM85.8331 33.4637C85.8331 35.3555 86.1805 36.7218 86.8552 37.5626C87.5298 38.3824 88.4706 38.8027 89.6559 38.8027C90.862 38.8027 91.802 38.4034 92.4767 37.5836C93.1513 36.7639 93.4786 35.3135 93.4786 33.2115C93.4786 31.4458 93.1313 30.1425 92.4357 29.3438C91.7409 28.524 90.8009 28.1246 89.6149 28.1246C88.5727 28.0827 87.5507 28.5451 86.8761 29.3648C86.1805 30.1846 85.8331 31.5509 85.8331 33.4637Z" fill="black"/>
<path d="M98.5477 24.0468H104.189V38.2142H113V42.8386H98.5276V24.0468H98.5477Z" fill="black"/>
<path d="M92.3294 22.9623C98.0095 18.5608 99.7614 11.0994 96.2417 6.29693C92.7219 1.49445 85.2648 1.16943 79.5843 5.57099C73.9042 9.9726 72.1527 17.4339 75.6721 22.2364C79.1916 27.0389 86.6492 27.3639 92.3294 22.9623Z" fill="white"/>
<path d="M92.3294 22.9623C98.0095 18.5608 99.7614 11.0994 96.2417 6.29693C92.7219 1.49445 85.2648 1.16943 79.5843 5.57099C73.9042 9.9726 72.1527 17.4339 75.6721 22.2364C79.1916 27.0389 86.6492 27.3639 92.3294 22.9623Z" fill="white"/>
<path d="M92.3294 22.9623C98.0095 18.5608 99.7614 11.0994 96.2417 6.29692C92.7219 1.49443 85.2648 1.16942 79.5843 5.57099C73.9042 9.9726 72.1527 17.4339 75.6721 22.2364C79.1916 27.0389 86.6492 27.3639 92.3294 22.9623Z" fill="white" stroke="black" stroke-width="4" stroke-miterlimit="10"/>
<path d="M92.3294 22.9623C98.0095 18.5608 99.7614 11.0994 96.2417 6.29693C92.7219 1.49445 85.2648 1.16943 79.5843 5.57099C73.9042 9.9726 72.1527 17.4339 75.6721 22.2364C79.1916 27.0389 86.6492 27.3639 92.3294 22.9623Z" stroke="black" stroke-width="4" stroke-miterlimit="10"/>
<path d="M92.3294 22.9623C98.0095 18.5608 99.7614 11.0994 96.2417 6.29692C92.7219 1.49443 85.2648 1.16942 79.5843 5.57099C73.9042 9.9726 72.1527 17.4339 75.6721 22.2364C79.1916 27.0389 86.6492 27.3639 92.3294 22.9623Z" fill="white" stroke="black" stroke-width="4" stroke-miterlimit="10"/>
<path d="M92.3294 22.9623C98.0095 18.5608 99.7614 11.0994 96.2417 6.29693C92.7219 1.49445 85.2648 1.16943 79.5843 5.57099C73.9042 9.9726 72.1527 17.4339 75.6721 22.2364C79.1916 27.0389 86.6492 27.3639 92.3294 22.9623Z" stroke="black" stroke-width="4" stroke-miterlimit="10"/>
<path d="M80.2121 12.8852L82.2562 11.4139L84.7701 15.0923C85.1995 15.6809 85.5268 16.3115 85.772 17.0052C85.9152 17.5306 85.8741 18.0981 85.6699 18.6026C85.4046 19.2332 84.9752 19.7587 84.4026 20.1371C83.728 20.6205 83.1556 20.8938 82.665 20.9779C82.1949 21.062 81.7043 20.9779 81.2545 20.7677C80.7639 20.5154 80.3347 20.1581 80.0077 19.6957L81.7656 18.0141C81.9087 18.2453 82.0927 18.4555 82.2971 18.6237C82.4402 18.7288 82.6037 18.7918 82.7876 18.7918C82.9308 18.7918 83.0738 18.7288 83.176 18.6447C83.3804 18.5186 83.5236 18.2663 83.5031 18.0141C83.4418 17.6568 83.2987 17.2994 83.0738 17.0261L80.2121 12.8852ZM86.3446 15.2184L88.2045 13.705C88.4087 13.9572 88.6749 14.1464 88.9611 14.2515C89.3696 14.3777 89.799 14.2936 90.1464 14.0203C90.3916 13.8521 90.5967 13.621 90.6779 13.3267C90.8009 12.9483 90.5967 12.5279 90.2284 12.4017C90.1673 12.3808 90.1054 12.3598 90.0443 12.3598C89.799 12.3387 89.3696 12.4438 88.736 12.7171C87.6939 13.1585 86.8761 13.3267 86.2625 13.2636C85.6699 13.2005 85.1183 12.8852 84.791 12.3598C84.5458 12.0024 84.4227 11.582 84.4026 11.1616C84.4026 10.6781 84.5248 10.1947 84.791 9.79533C85.1794 9.22773 85.6498 8.74432 86.2215 8.36596C87.0803 7.75638 87.837 7.4621 88.4907 7.4621C89.1453 7.4621 89.758 7.7774 90.3305 8.42902L88.4907 9.92141C88.1233 9.438 87.4277 9.33291 86.9581 9.71122L86.8962 9.77426C86.6919 9.90042 86.5488 10.0896 86.4668 10.3208C86.4057 10.489 86.4467 10.6781 86.5488 10.8253C86.6308 10.9304 86.753 11.0145 86.8962 11.0145C87.0602 11.0355 87.3465 10.9514 87.755 10.7622C88.777 10.3208 89.5538 10.0686 90.0853 9.98453C90.5348 9.90042 91.0052 9.94248 91.4346 10.1316C91.823 10.2998 92.1503 10.5941 92.3746 10.9514C92.6608 11.3718 92.8241 11.8763 92.845 12.4017C92.8651 12.9483 92.7219 13.4738 92.4357 13.9362C92.0682 14.5038 91.5978 14.9872 91.0462 15.3656C89.9221 16.1643 89.0021 16.5007 88.2664 16.3745C87.4687 16.2484 86.815 15.828 86.3446 15.2184Z" fill="black"/>
</svg>
